<mxfile host="app.diagrams.net" modified="2023-11-30T09:47:37.383Z" agent="Mozilla/5.0 (Windows NT 10.0; Win64; x64) AppleWebKit/537.36 (KHTML, like Gecko) Chrome/119.0.0.0 Safari/537.36" etag="24cIdXFuQ9A9hjrA-MRK" version="22.1.5" type="github">
  <diagram name="Page-1" id="ok2TvmewuLuq0UXt3lLR">
    <mxGraphModel dx="819" dy="433" grid="1" gridSize="10" guides="1" tooltips="1" connect="1" arrows="1" fold="1" page="1" pageScale="1" pageWidth="827" pageHeight="1169" math="0" shadow="0">
      <root>
        <mxCell id="0" />
        <mxCell id="1" parent="0" />
        <mxCell id="4IhOtrmuYKKfBLMjniHK-1" value="Debut" style="rounded=1;whiteSpace=wrap;html=1;" vertex="1" parent="1">
          <mxGeometry x="50" y="10" width="120" height="60" as="geometry" />
        </mxCell>
        <mxCell id="4IhOtrmuYKKfBLMjniHK-2" value="Prendre pain bas" style="rounded=0;whiteSpace=wrap;html=1;" vertex="1" parent="1">
          <mxGeometry x="50" y="80" width="120" height="60" as="geometry" />
        </mxCell>
        <mxCell id="4IhOtrmuYKKfBLMjniHK-3" value="" style="rounded=0;whiteSpace=wrap;html=1;" vertex="1" parent="1">
          <mxGeometry x="380" y="30" width="120" height="60" as="geometry" />
        </mxCell>
        <mxCell id="4IhOtrmuYKKfBLMjniHK-4" value="" style="rounded=0;whiteSpace=wrap;html=1;" vertex="1" parent="1">
          <mxGeometry x="230" y="30" width="120" height="60" as="geometry" />
        </mxCell>
        <mxCell id="4IhOtrmuYKKfBLMjniHK-5" value="poser la salade sur le pain bas" style="rounded=0;whiteSpace=wrap;html=1;" vertex="1" parent="1">
          <mxGeometry x="50" y="240" width="120" height="60" as="geometry" />
        </mxCell>
        <mxCell id="4IhOtrmuYKKfBLMjniHK-30" style="edgeStyle=orthogonalEdgeStyle;rounded=0;orthogonalLoop=1;jettySize=auto;html=1;exitX=0.5;exitY=1;exitDx=0;exitDy=0;entryX=0.5;entryY=0;entryDx=0;entryDy=0;" edge="1" parent="1" source="4IhOtrmuYKKfBLMjniHK-6" target="4IhOtrmuYKKfBLMjniHK-17">
          <mxGeometry relative="1" as="geometry" />
        </mxCell>
        <mxCell id="4IhOtrmuYKKfBLMjniHK-6" value="poser une tranche de fromage sur la salade" style="rounded=0;whiteSpace=wrap;html=1;" vertex="1" parent="1">
          <mxGeometry x="50" y="540" width="120" height="60" as="geometry" />
        </mxCell>
        <mxCell id="4IhOtrmuYKKfBLMjniHK-10" style="edgeStyle=orthogonalEdgeStyle;rounded=0;orthogonalLoop=1;jettySize=auto;html=1;exitX=1;exitY=0.5;exitDx=0;exitDy=0;entryX=0;entryY=0.5;entryDx=0;entryDy=0;" edge="1" parent="1" source="4IhOtrmuYKKfBLMjniHK-7" target="4IhOtrmuYKKfBLMjniHK-9">
          <mxGeometry relative="1" as="geometry" />
        </mxCell>
        <mxCell id="4IhOtrmuYKKfBLMjniHK-11" value="Oui" style="edgeLabel;html=1;align=center;verticalAlign=middle;resizable=0;points=[];" vertex="1" connectable="0" parent="4IhOtrmuYKKfBLMjniHK-10">
          <mxGeometry x="-0.1824" y="2" relative="1" as="geometry">
            <mxPoint as="offset" />
          </mxGeometry>
        </mxCell>
        <mxCell id="4IhOtrmuYKKfBLMjniHK-12" value="&lt;b&gt;&lt;font style=&quot;font-size: 13px;&quot;&gt;oui&lt;/font&gt;&lt;/b&gt;" style="edgeLabel;html=1;align=center;verticalAlign=middle;resizable=0;points=[];" vertex="1" connectable="0" parent="4IhOtrmuYKKfBLMjniHK-10">
          <mxGeometry x="-0.1121" relative="1" as="geometry">
            <mxPoint as="offset" />
          </mxGeometry>
        </mxCell>
        <mxCell id="4IhOtrmuYKKfBLMjniHK-13" style="edgeStyle=orthogonalEdgeStyle;rounded=0;orthogonalLoop=1;jettySize=auto;html=1;exitX=0.5;exitY=1;exitDx=0;exitDy=0;entryX=0.5;entryY=0;entryDx=0;entryDy=0;" edge="1" parent="1" source="4IhOtrmuYKKfBLMjniHK-7" target="4IhOtrmuYKKfBLMjniHK-6">
          <mxGeometry relative="1" as="geometry" />
        </mxCell>
        <mxCell id="4IhOtrmuYKKfBLMjniHK-14" value="&lt;font style=&quot;font-size: 13px;&quot;&gt;&lt;b&gt;NON&lt;/b&gt;&lt;/font&gt;" style="edgeLabel;html=1;align=center;verticalAlign=middle;resizable=0;points=[];" vertex="1" connectable="0" parent="4IhOtrmuYKKfBLMjniHK-13">
          <mxGeometry x="0.1061" y="-2" relative="1" as="geometry">
            <mxPoint as="offset" />
          </mxGeometry>
        </mxCell>
        <mxCell id="4IhOtrmuYKKfBLMjniHK-7" value="Client Intolérant au lactose&amp;nbsp;" style="rhombus;whiteSpace=wrap;html=1;" vertex="1" parent="1">
          <mxGeometry x="45" y="330" width="130" height="140" as="geometry" />
        </mxCell>
        <mxCell id="4IhOtrmuYKKfBLMjniHK-8" value="" style="rhombus;whiteSpace=wrap;html=1;" vertex="1" parent="1">
          <mxGeometry x="400" y="120" width="80" height="80" as="geometry" />
        </mxCell>
        <mxCell id="4IhOtrmuYKKfBLMjniHK-9" value="ne pas mettre de fromage" style="rounded=0;whiteSpace=wrap;html=1;" vertex="1" parent="1">
          <mxGeometry x="240" y="370" width="120" height="60" as="geometry" />
        </mxCell>
        <mxCell id="4IhOtrmuYKKfBLMjniHK-46" style="edgeStyle=orthogonalEdgeStyle;rounded=0;orthogonalLoop=1;jettySize=auto;html=1;exitX=0.5;exitY=1;exitDx=0;exitDy=0;entryX=0.5;entryY=0;entryDx=0;entryDy=0;" edge="1" parent="1" source="4IhOtrmuYKKfBLMjniHK-15" target="4IhOtrmuYKKfBLMjniHK-37">
          <mxGeometry relative="1" as="geometry" />
        </mxCell>
        <mxCell id="4IhOtrmuYKKfBLMjniHK-15" value="poser un steak sur la tranche de fromage" style="rounded=0;whiteSpace=wrap;html=1;" vertex="1" parent="1">
          <mxGeometry x="50" y="860" width="120" height="60" as="geometry" />
        </mxCell>
        <mxCell id="4IhOtrmuYKKfBLMjniHK-16" value="poser une tranche de fromage le steak" style="rounded=0;whiteSpace=wrap;html=1;" vertex="1" parent="1">
          <mxGeometry x="50" y="1150" width="120" height="60" as="geometry" />
        </mxCell>
        <mxCell id="4IhOtrmuYKKfBLMjniHK-22" style="edgeStyle=orthogonalEdgeStyle;rounded=0;orthogonalLoop=1;jettySize=auto;html=1;exitX=0.5;exitY=1;exitDx=0;exitDy=0;entryX=0.5;entryY=0;entryDx=0;entryDy=0;" edge="1" parent="1" source="4IhOtrmuYKKfBLMjniHK-17" target="4IhOtrmuYKKfBLMjniHK-15">
          <mxGeometry relative="1" as="geometry" />
        </mxCell>
        <mxCell id="4IhOtrmuYKKfBLMjniHK-23" value="&lt;font style=&quot;font-size: 13px;&quot;&gt;&lt;b&gt;non&lt;/b&gt;&lt;/font&gt;" style="edgeLabel;html=1;align=center;verticalAlign=middle;resizable=0;points=[];" vertex="1" connectable="0" parent="4IhOtrmuYKKfBLMjniHK-22">
          <mxGeometry x="0.0333" y="-2" relative="1" as="geometry">
            <mxPoint as="offset" />
          </mxGeometry>
        </mxCell>
        <mxCell id="4IhOtrmuYKKfBLMjniHK-17" value="Client est&amp;nbsp; végétarien" style="rhombus;whiteSpace=wrap;html=1;" vertex="1" parent="1">
          <mxGeometry x="45" y="660" width="130" height="140" as="geometry" />
        </mxCell>
        <mxCell id="4IhOtrmuYKKfBLMjniHK-18" style="edgeStyle=orthogonalEdgeStyle;rounded=0;orthogonalLoop=1;jettySize=auto;html=1;exitX=1;exitY=0.5;exitDx=0;exitDy=0;entryX=0;entryY=0.5;entryDx=0;entryDy=0;" edge="1" parent="1" target="4IhOtrmuYKKfBLMjniHK-21">
          <mxGeometry relative="1" as="geometry">
            <mxPoint x="180" y="730" as="sourcePoint" />
            <Array as="points">
              <mxPoint x="180" y="730" />
              <mxPoint x="180" y="730" />
            </Array>
          </mxGeometry>
        </mxCell>
        <mxCell id="4IhOtrmuYKKfBLMjniHK-19" value="Oui" style="edgeLabel;html=1;align=center;verticalAlign=middle;resizable=0;points=[];" vertex="1" connectable="0" parent="4IhOtrmuYKKfBLMjniHK-18">
          <mxGeometry x="-0.1824" y="2" relative="1" as="geometry">
            <mxPoint as="offset" />
          </mxGeometry>
        </mxCell>
        <mxCell id="4IhOtrmuYKKfBLMjniHK-20" value="&lt;b&gt;&lt;font style=&quot;font-size: 13px;&quot;&gt;oui&lt;/font&gt;&lt;/b&gt;" style="edgeLabel;html=1;align=center;verticalAlign=middle;resizable=0;points=[];" vertex="1" connectable="0" parent="4IhOtrmuYKKfBLMjniHK-18">
          <mxGeometry x="-0.1121" relative="1" as="geometry">
            <mxPoint as="offset" />
          </mxGeometry>
        </mxCell>
        <mxCell id="4IhOtrmuYKKfBLMjniHK-44" style="edgeStyle=orthogonalEdgeStyle;rounded=0;orthogonalLoop=1;jettySize=auto;html=1;exitX=0.5;exitY=1;exitDx=0;exitDy=0;entryX=0.506;entryY=-0.06;entryDx=0;entryDy=0;entryPerimeter=0;" edge="1" parent="1" source="4IhOtrmuYKKfBLMjniHK-21" target="4IhOtrmuYKKfBLMjniHK-38">
          <mxGeometry relative="1" as="geometry">
            <mxPoint x="370" y="850" as="targetPoint" />
          </mxGeometry>
        </mxCell>
        <mxCell id="4IhOtrmuYKKfBLMjniHK-21" value="poser une galette de légume sur la tranche de fromage" style="rounded=0;whiteSpace=wrap;html=1;" vertex="1" parent="1">
          <mxGeometry x="340" y="700" width="120" height="60" as="geometry" />
        </mxCell>
        <mxCell id="4IhOtrmuYKKfBLMjniHK-24" value="poser les rondelles d&#39;oignons sur la tranche de fromage" style="rounded=0;whiteSpace=wrap;html=1;" vertex="1" parent="1">
          <mxGeometry x="45" y="1250" width="120" height="60" as="geometry" />
        </mxCell>
        <mxCell id="4IhOtrmuYKKfBLMjniHK-25" value="poser les tranches de tomates sur les rondelles d&#39;oignons" style="rounded=0;whiteSpace=wrap;html=1;" vertex="1" parent="1">
          <mxGeometry x="530" y="1070" width="120" height="60" as="geometry" />
        </mxCell>
        <mxCell id="4IhOtrmuYKKfBLMjniHK-26" value="poser la salade sur les rondelles de tomate" style="rounded=0;whiteSpace=wrap;html=1;" vertex="1" parent="1">
          <mxGeometry x="530" y="960" width="120" height="60" as="geometry" />
        </mxCell>
        <mxCell id="4IhOtrmuYKKfBLMjniHK-27" value="poser le pain bas sur la table" style="rounded=0;whiteSpace=wrap;html=1;" vertex="1" parent="1">
          <mxGeometry x="50" y="160" width="120" height="60" as="geometry" />
        </mxCell>
        <mxCell id="4IhOtrmuYKKfBLMjniHK-28" value="Prendre pain haut" style="rounded=0;whiteSpace=wrap;html=1;" vertex="1" parent="1">
          <mxGeometry x="530" y="840" width="120" height="60" as="geometry" />
        </mxCell>
        <mxCell id="4IhOtrmuYKKfBLMjniHK-29" value="poser le pain haut sur la salade" style="rounded=0;whiteSpace=wrap;html=1;" vertex="1" parent="1">
          <mxGeometry x="530" y="730" width="120" height="60" as="geometry" />
        </mxCell>
        <mxCell id="4IhOtrmuYKKfBLMjniHK-34" style="edgeStyle=orthogonalEdgeStyle;rounded=0;orthogonalLoop=1;jettySize=auto;html=1;exitX=1;exitY=0.5;exitDx=0;exitDy=0;entryX=0;entryY=0.5;entryDx=0;entryDy=0;" edge="1" parent="1" source="4IhOtrmuYKKfBLMjniHK-37" target="4IhOtrmuYKKfBLMjniHK-38">
          <mxGeometry relative="1" as="geometry" />
        </mxCell>
        <mxCell id="4IhOtrmuYKKfBLMjniHK-35" value="Oui" style="edgeLabel;html=1;align=center;verticalAlign=middle;resizable=0;points=[];" vertex="1" connectable="0" parent="4IhOtrmuYKKfBLMjniHK-34">
          <mxGeometry x="-0.1824" y="2" relative="1" as="geometry">
            <mxPoint as="offset" />
          </mxGeometry>
        </mxCell>
        <mxCell id="4IhOtrmuYKKfBLMjniHK-36" value="&lt;b&gt;&lt;font style=&quot;font-size: 13px;&quot;&gt;oui&lt;/font&gt;&lt;/b&gt;" style="edgeLabel;html=1;align=center;verticalAlign=middle;resizable=0;points=[];" vertex="1" connectable="0" parent="4IhOtrmuYKKfBLMjniHK-34">
          <mxGeometry x="-0.1121" relative="1" as="geometry">
            <mxPoint as="offset" />
          </mxGeometry>
        </mxCell>
        <mxCell id="4IhOtrmuYKKfBLMjniHK-37" value="Client Intolérant au lactose&amp;nbsp;" style="rhombus;whiteSpace=wrap;html=1;" vertex="1" parent="1">
          <mxGeometry x="45" y="970" width="130" height="140" as="geometry" />
        </mxCell>
        <mxCell id="4IhOtrmuYKKfBLMjniHK-45" style="edgeStyle=orthogonalEdgeStyle;rounded=0;orthogonalLoop=1;jettySize=auto;html=1;exitX=0.5;exitY=1;exitDx=0;exitDy=0;entryX=1;entryY=0.75;entryDx=0;entryDy=0;" edge="1" parent="1" source="4IhOtrmuYKKfBLMjniHK-38" target="4IhOtrmuYKKfBLMjniHK-24">
          <mxGeometry relative="1" as="geometry" />
        </mxCell>
        <mxCell id="4IhOtrmuYKKfBLMjniHK-38" value="ne pas mettre de fromage" style="rounded=0;whiteSpace=wrap;html=1;" vertex="1" parent="1">
          <mxGeometry x="340" y="1010" width="120" height="60" as="geometry" />
        </mxCell>
        <mxCell id="4IhOtrmuYKKfBLMjniHK-43" style="edgeStyle=orthogonalEdgeStyle;rounded=0;orthogonalLoop=1;jettySize=auto;html=1;exitX=0.5;exitY=1;exitDx=0;exitDy=0;entryX=0.532;entryY=0.001;entryDx=0;entryDy=0;entryPerimeter=0;" edge="1" parent="1">
          <mxGeometry relative="1" as="geometry">
            <mxPoint x="295.84" y="430" as="sourcePoint" />
            <mxPoint x="109.99999999999997" y="660.1399999999999" as="targetPoint" />
            <Array as="points">
              <mxPoint x="296" y="650" />
              <mxPoint x="110" y="650" />
            </Array>
          </mxGeometry>
        </mxCell>
      </root>
    </mxGraphModel>
  </diagram>
</mxfile>
